<svg width="20" height="20" viewBox="0 0 20 20" fill="none" xmlns="http://www.w3.org/2000/svg">
<path d="M9.99999 12.0417L16.125 5.91667C16.3333 5.70833 16.5764 5.6075 16.8542 5.61417C17.1319 5.62083 17.375 5.72861 17.5833 5.9375C17.7917 6.14639 17.8958 6.38944 17.8958 6.66667C17.8958 6.94389 17.7917 7.18694 17.5833 7.39583L11.1875 13.8125C11.0208 13.9792 10.8333 14.1042 10.625 14.1875C10.4167 14.2708 10.2083 14.3125 9.99999 14.3125C9.79166 14.3125 9.58333 14.2708 9.37499 14.1875C9.16666 14.1042 8.97916 13.9792 8.81249 13.8125L2.39583 7.39583C2.18749 7.1875 2.08666 6.94083 2.09333 6.65583C2.09999 6.37083 2.20777 6.12444 2.41666 5.91667C2.62555 5.70889 2.86861 5.60472 3.14583 5.60417C3.42305 5.60361 3.66611 5.70778 3.87499 5.91667L9.99999 12.0417Z" fill="#979797"/>
</svg>
