<svg width="24" height="24" viewBox="0 0 24 24" fill="none" xmlns="http://www.w3.org/2000/svg">
<g clip-path="url(#clip0_247_33)">
<path fill-rule="evenodd" clip-rule="evenodd" d="M13.8 7.20005C13.0044 7.20005 12.2413 7.51612 11.6787 8.07873C11.1161 8.64134 10.8 9.4044 10.8 10.2C10.8 10.9957 11.1161 11.7588 11.6787 12.3214C12.2413 12.884 13.0044 13.2 13.8 13.2C14.5957 13.2 15.3587 12.884 15.9213 12.3214C16.484 11.7588 16.8 10.9957 16.8 10.2C16.8 9.4044 16.484 8.64134 15.9213 8.07873C15.3587 7.51612 14.5957 7.20005 13.8 7.20005ZM8.40002 10.2C8.40002 8.76788 8.96895 7.39437 9.98165 6.38167C10.9943 5.36898 12.3679 4.80005 13.8 4.80005C15.2322 4.80005 16.6057 5.36898 17.6184 6.38167C18.6311 7.39437 19.2 8.76788 19.2 10.2C19.2 11.6322 18.6311 13.0057 17.6184 14.0184C16.6057 15.0311 15.2322 15.6 13.8 15.6C12.3679 15.6 10.9943 15.0311 9.98165 14.0184C8.96895 13.0057 8.40002 11.6322 8.40002 10.2Z" fill="#6580A9"/>
<path fill-rule="evenodd" clip-rule="evenodd" d="M2.40002 4.80005C2.40002 4.0044 2.71609 3.24134 3.2787 2.67873C3.84131 2.11612 4.60438 1.80005 5.40002 1.80005C6.19567 1.80005 6.95874 2.11612 7.52135 2.67873C8.08395 3.24134 8.40002 4.0044 8.40002 4.80005V8.72645C8.40002 9.78605 8.77202 10.8108 9.44882 11.6244L11.1216 13.632C11.227 13.7525 11.3072 13.8928 11.3575 14.0446C11.4079 14.1965 11.4273 14.357 11.4148 14.5165C11.4022 14.676 11.3578 14.8314 11.2843 14.9735C11.2108 15.1156 11.1096 15.2416 10.9867 15.344C10.8638 15.4465 10.7216 15.5233 10.5685 15.57C10.4155 15.6167 10.2547 15.6323 10.0955 15.6159C9.93632 15.5995 9.78204 15.5514 9.64172 15.4745C9.5014 15.3976 9.37788 15.2934 9.27842 15.168L7.60562 13.1604C6.56827 11.9157 6.00012 10.3468 6.00002 8.72645V4.80005C6.00002 4.64092 5.93681 4.48831 5.82429 4.37578C5.71177 4.26326 5.55915 4.20005 5.40002 4.20005C5.24089 4.20005 5.08828 4.26326 4.97576 4.37578C4.86324 4.48831 4.80002 4.64092 4.80002 4.80005V9.30005C4.79988 10.0877 4.99357 10.8633 5.36402 11.5584L9.45842 19.2348C9.60256 19.515 9.63073 19.8406 9.53685 20.1414C9.44296 20.4422 9.23455 20.6939 8.95663 20.8423C8.6787 20.9908 8.35355 21.0239 8.05138 20.9347C7.74922 20.8454 7.49429 20.6409 7.34162 20.3652L3.24722 12.6876C2.69113 11.6451 2.40017 10.4817 2.40002 9.30005V4.80005Z" fill="#6580A9"/>
<path fill-rule="evenodd" clip-rule="evenodd" d="M9.00001 14.4001C9.00001 14.0818 9.12644 13.7766 9.35148 13.5515C9.57653 13.3265 9.88175 13.2001 10.2 13.2001H13.2C15.1096 13.2001 16.9409 13.9586 18.2912 15.3089C19.6414 16.6592 20.4 18.4905 20.4 20.4001V22.8001C20.4 23.1183 20.2736 23.4236 20.0485 23.6486C19.8235 23.8736 19.5183 24.0001 19.2 24.0001C18.8818 24.0001 18.5765 23.8736 18.3515 23.6486C18.1264 23.4236 18 23.1183 18 22.8001V20.4001C18 19.127 17.4943 17.9061 16.5941 17.006C15.6939 16.1058 14.4731 15.6001 13.2 15.6001H10.2C9.88175 15.6001 9.57653 15.4736 9.35148 15.2486C9.12644 15.0236 9.00001 14.7183 9.00001 14.4001ZM8.40001 18.6001C8.71827 18.6001 9.0235 18.7265 9.24854 18.9515C9.47358 19.1766 9.60001 19.4818 9.60001 19.8001V22.8001C9.60001 23.1183 9.47358 23.4236 9.24854 23.6486C9.0235 23.8736 8.71827 24.0001 8.40001 24.0001C8.08175 24.0001 7.77653 23.8736 7.55148 23.6486C7.32644 23.4236 7.20001 23.1183 7.20001 22.8001V19.8001C7.20001 19.4818 7.32644 19.1766 7.55148 18.9515C7.77653 18.7265 8.08175 18.6001 8.40001 18.6001Z" fill="#6580A9"/>
</g>
<defs>
<clipPath id="clip0_247_33">
<rect width="24" height="24" fill="white"/>
</clipPath>
</defs>
</svg>
