<svg width="24" height="24" viewBox="0 0 24 24" fill="none" xmlns="http://www.w3.org/2000/svg">
<path d="M21.318 7.14108L20.824 6.28508C20.451 5.63708 20.264 5.31308 19.946 5.18408C19.629 5.05408 19.27 5.15708 18.551 5.36008L17.331 5.70408C16.872 5.81008 16.391 5.75008 15.973 5.53408L15.636 5.34008C15.277 5.11 15.0008 4.77118 14.848 4.37308L14.514 3.37508C14.294 2.71508 14.184 2.38508 13.923 2.19708C13.662 2.00708 13.314 2.00708 12.62 2.00708H11.505C10.811 2.00708 10.464 2.00708 10.202 2.19708C9.94099 2.38508 9.83199 2.71508 9.61199 3.37508L9.27799 4.37308C9.12487 4.77132 8.8484 5.11016 8.48899 5.34008L8.15199 5.53508C7.73399 5.75008 7.25199 5.81008 6.79399 5.70508L5.57399 5.36008C4.85499 5.15708 4.49599 5.05508 4.17899 5.18408C3.86099 5.31308 3.67399 5.63708 3.30099 6.28408L2.80799 7.14108C2.45799 7.74908 2.28299 8.05208 2.31699 8.37508C2.35099 8.69908 2.58499 8.95908 3.05299 9.48008L4.08399 10.6331C4.33599 10.9521 4.51499 11.5081 4.51499 12.0081C4.51499 12.5081 4.33599 13.0641 4.08499 13.3831L3.05299 14.5351C2.58499 15.0561 2.35099 15.3171 2.31699 15.6401C2.28299 15.9631 2.45699 16.2671 2.80699 16.8741L3.30099 17.7311C3.67399 18.3781 3.86099 18.7021 4.17899 18.8311C4.49699 18.9601 4.85499 18.8591 5.57399 18.6551L6.79399 18.3111C7.25288 18.206 7.73412 18.2662 8.15299 18.4811L8.48899 18.6751C8.84899 18.9051 9.12499 19.2451 9.27699 19.6431L9.61099 20.6401C9.83099 21.3001 9.94099 21.6301 10.202 21.8201C10.464 22.0081 10.811 22.0081 11.505 22.0081H12.62C13.314 22.0081 13.662 22.0081 13.923 21.8191C14.184 21.6301 14.294 21.3001 14.513 20.6401L14.848 19.6431C15 19.2441 15.276 18.9051 15.636 18.6751L15.972 18.4811C16.392 18.2661 16.872 18.2051 17.332 18.3111L18.552 18.6551C19.27 18.8591 19.629 18.9611 19.946 18.8321C20.264 18.7021 20.451 18.3781 20.824 17.7311L21.317 16.8741C21.667 16.2671 21.842 15.9641 21.808 15.6401C21.774 15.3161 21.54 15.0561 21.072 14.5351L20.041 13.3831C19.789 13.0631 19.61 12.5081 19.61 12.0081C19.61 11.5081 19.789 10.9521 20.04 10.6331L21.072 9.48008C21.54 8.96008 21.774 8.69908 21.808 8.37508C21.842 8.05108 21.668 7.74908 21.318 7.14108Z" stroke="#6580A9" stroke-width="1.5" stroke-linecap="round" stroke-linejoin="round"/>
<path d="M15.52 12C15.52 12.9283 15.1513 13.8185 14.4949 14.4749C13.8385 15.1313 12.9483 15.5 12.02 15.5C11.0918 15.5 10.2015 15.1313 9.54515 14.4749C8.88877 13.8185 8.52002 12.9283 8.52002 12C8.52002 11.0717 8.88877 10.1815 9.54515 9.52513C10.2015 8.86875 11.0918 8.5 12.02 8.5C12.9483 8.5 13.8385 8.86875 14.4949 9.52513C15.1513 10.1815 15.52 11.0717 15.52 12Z" stroke="#6580A9" stroke-width="1.5" stroke-linecap="round" stroke-linejoin="round"/>
</svg>
