<svg width="26" height="26" viewBox="0 0 26 26" fill="none" xmlns="http://www.w3.org/2000/svg">
<rect width="26" height="26" rx="4" fill="#F4F8FF"/>
<path d="M15.999 17.354L16.3531 17M10.9975 18.354L11.3516 18M8.99691 9.35408L9.35002 9.00008M7.99661 14.354L8.34972 14.0001M12.9981 13.3541L13.3522 13.0001M13.0011 22C15.3298 21.9999 17.5679 21.0981 19.2457 19.4838C20.9235 17.8695 21.9106 15.6683 21.9998 13.3421C22.0058 13.1891 21.8398 13.0921 21.7018 13.1611C19.225 14.408 17.6945 13.0841 17.9436 11.3071C17.9479 11.2727 17.9443 11.2379 17.9332 11.2051C17.9221 11.1724 17.9038 11.1425 17.8796 11.1178C17.8553 11.0931 17.8258 11.0742 17.7933 11.0625C17.7607 11.0507 17.726 11.0465 17.6915 11.0501C15.5199 11.3531 14.6046 10.0361 14.9467 8.24609C14.9518 8.2156 14.9505 8.18439 14.943 8.15441C14.9355 8.12443 14.9219 8.09632 14.903 8.07183C14.8842 8.04734 14.8604 8.027 14.8334 8.01208C14.8063 7.99715 14.7764 7.98797 14.7456 7.98509C12.702 7.80309 12.533 5.44511 12.8841 4.29511C12.9271 4.15311 12.8251 3.99512 12.677 4.00012C10.319 4.08621 8.08896 5.09405 6.46656 6.80685C4.84415 8.51966 3.95899 10.8006 4.00146 13.1591C4.04393 15.5176 5.01063 17.7652 6.69364 19.4185C8.37665 21.0718 10.6415 21.9988 13.0011 22Z" stroke="#1D6F9F" stroke-width="1.5" stroke-linecap="round" stroke-linejoin="round"/>
</svg>
