<svg width="26" height="26" viewBox="0 0 26 26" fill="none" xmlns="http://www.w3.org/2000/svg">
<rect width="26" height="26" rx="4" fill="#EEFFE5"/>
<path d="M4 6.231L7.15 4M22 6.231L18.85 4M21 14C21 16.1217 20.1571 18.1566 18.6569 19.6569C17.1566 21.1571 15.1217 22 13 22C10.8783 22 8.84344 21.1571 7.34315 19.6569C5.84285 18.1566 5 16.1217 5 14C5 11.8783 5.84285 9.84344 7.34315 8.34315C8.84344 6.84285 10.8783 6 13 6C15.1217 6 17.1566 6.84285 18.6569 8.34315C20.1571 9.84344 21 11.8783 21 14Z" stroke="#0D8C2F" stroke-width="1.5" stroke-linecap="round" stroke-linejoin="round"/>
<path d="M11 14.323L12.379 15.898C12.4087 15.9314 12.4456 15.9577 12.4868 15.9751C12.528 15.9924 12.5726 16.0003 12.6173 15.9982C12.6619 15.9961 12.7056 15.984 12.745 15.9629C12.7844 15.9418 12.8185 15.9121 12.845 15.876L15.645 12" stroke="#0D8C2F" stroke-width="1.5" stroke-linecap="round" stroke-linejoin="round"/>
</svg>
