<svg width="18" height="18" viewBox="0 0 18 18" fill="none" xmlns="http://www.w3.org/2000/svg">
<path d="M13.5 3H9.00001H4.50001C3.67126 3 2.98051 3.6825 3.18526 4.485C3.40333 5.33538 3.80489 6.12772 4.36177 6.80638C4.91864 7.48505 5.61733 8.03359 6.40876 8.4135C7.02601 8.709 7.50001 9.2895 7.50001 9.9735V14.5365C7.50008 14.6643 7.5328 14.79 7.59507 14.9015C7.65734 15.0131 7.74709 15.107 7.85581 15.1741C7.96452 15.2413 8.0886 15.2796 8.21626 15.2853C8.34393 15.2911 8.47094 15.2641 8.58526 15.207L10.0853 14.457C10.2098 14.3948 10.3146 14.2991 10.3878 14.1806C10.4611 14.0622 10.4999 13.9257 10.5 13.7865V9.9735C10.5 9.2895 10.974 8.709 11.5905 8.4135C12.3822 8.03377 13.0812 7.4853 13.6383 6.80662C14.1955 6.12795 14.5973 5.33552 14.8155 4.485C15.0188 3.6825 14.3273 3 13.5 3Z" stroke="white" stroke-width="1.5"/>
</svg>
