<svg width="24" height="24" viewBox="0 0 24 24" fill="none" xmlns="http://www.w3.org/2000/svg">
<rect x="0.5" y="0.5" width="23" height="23" rx="11.5" stroke="#6580A9"/>
<g clip-path="url(#clip0_29_346)">
<path d="M9.00001 12C8.99921 11.9344 9.01214 11.8694 9.03798 11.8091C9.06381 11.7489 9.10197 11.6946 9.15001 11.65L13.65 7.15C13.85 6.95 14.16 6.95 14.36 7.15C14.56 7.35 14.56 7.66 14.36 7.86L10.21 12.01L14.35 16.15C14.55 16.35 14.55 16.66 14.35 16.86C14.15 17.06 13.84 17.06 13.64 16.86L9.14001 12.36C9.04001 12.26 8.99001 12.13 8.99001 12.01L9.00001 12Z" fill="#6580A9"/>
</g>
<defs>
<clipPath id="clip0_29_346">
<rect width="16" height="7" fill="white" transform="matrix(0 1 -1 0 15.5 4)"/>
</clipPath>
</defs>
</svg>
