<svg xmlns="http://www.w3.org/2000/svg" xmlns:xlink="http://www.w3.org/1999/xlink" width="100" zoomAndPan="magnify" viewBox="0 0 75 74.999997" height="100" preserveAspectRatio="xMidYMid meet" version="1.0"><defs><clipPath id="048679602d"><path d="M 31 2.402344 L 45 2.402344 L 45 16 L 31 16 Z M 31 2.402344 " clip-rule="nonzero"/></clipPath><clipPath id="be59cc7290"><path d="M 60.011719 31.148438 L 72.898438 31.148438 L 72.898438 44.109375 L 60.011719 44.109375 Z M 60.011719 31.148438 " clip-rule="nonzero"/></clipPath><clipPath id="c57d1b2430"><path d="M 31.148438 60.011719 L 44.109375 60.011719 L 44.109375 72.898438 L 31.148438 72.898438 Z M 31.148438 60.011719 " clip-rule="nonzero"/></clipPath><clipPath id="ef299a95cf"><path d="M 2.402344 31 L 16 31 L 16 45 L 2.402344 45 Z M 2.402344 31 " clip-rule="nonzero"/></clipPath></defs><g clip-path="url(#048679602d)"><path fill="#4f4c4c" d="M 44.070312 8.824219 C 44.070312 12.367188 41.195312 15.242188 37.648438 15.242188 C 34.105469 15.242188 31.230469 12.367188 31.230469 8.824219 C 31.230469 5.277344 34.105469 2.402344 37.648438 2.402344 C 41.195312 2.402344 44.070312 5.277344 44.070312 8.824219 " fill-opacity="1" fill-rule="nonzero"/></g><path fill="#393536" d="M 62.574219 21.804688 C 60.066406 24.3125 56 24.3125 53.492188 21.804688 C 50.984375 19.296875 50.984375 15.234375 53.492188 12.726562 C 56 10.21875 60.066406 10.21875 62.574219 12.726562 C 65.082031 15.234375 65.082031 19.296875 62.574219 21.804688 " fill-opacity="1" fill-rule="nonzero"/><g clip-path="url(#be59cc7290)"><path fill="#f4f4f4" d="M 66.476562 44.070312 C 62.929688 44.070312 60.054688 41.195312 60.054688 37.648438 C 60.054688 34.105469 62.929688 31.230469 66.476562 31.230469 C 70.023438 31.230469 72.898438 34.105469 72.898438 37.648438 C 72.898438 41.195312 70.023438 44.070312 66.476562 44.070312 " fill-opacity="1" fill-rule="nonzero"/></g><path fill="#d3d2d2" d="M 53.492188 62.574219 C 50.984375 60.066406 50.984375 56 53.492188 53.492188 C 56 50.984375 60.066406 50.984375 62.574219 53.492188 C 65.082031 56 65.082031 60.066406 62.574219 62.574219 C 60.066406 65.082031 56 65.082031 53.492188 62.574219 " fill-opacity="1" fill-rule="nonzero"/><g clip-path="url(#c57d1b2430)"><path fill="#a7a5a6" d="M 31.230469 66.476562 C 31.230469 62.929688 34.105469 60.054688 37.648438 60.054688 C 41.195312 60.054688 44.070312 62.929688 44.070312 66.476562 C 44.070312 70.023438 41.195312 72.898438 37.648438 72.898438 C 34.105469 72.898438 31.230469 70.023438 31.230469 66.476562 " fill-opacity="1" fill-rule="nonzero"/></g><path fill="#918f8f" d="M 12.726562 53.492188 C 15.234375 50.984375 19.296875 50.984375 21.804688 53.492188 C 24.3125 56 24.3125 60.066406 21.804688 62.574219 C 19.296875 65.082031 15.234375 65.082031 12.726562 62.574219 C 10.21875 60.066406 10.21875 56 12.726562 53.492188 " fill-opacity="1" fill-rule="nonzero"/><g clip-path="url(#ef299a95cf)"><path fill="#7b7979" d="M 8.824219 31.230469 C 12.367188 31.230469 15.242188 34.105469 15.242188 37.648438 C 15.242188 41.195312 12.367188 44.070312 8.824219 44.070312 C 5.277344 44.070312 2.402344 41.195312 2.402344 37.648438 C 2.402344 34.105469 5.277344 31.230469 8.824219 31.230469 " fill-opacity="1" fill-rule="nonzero"/></g><path fill="#656263" d="M 21.804688 12.726562 C 24.3125 15.234375 24.3125 19.296875 21.804688 21.804688 C 19.296875 24.3125 15.234375 24.3125 12.726562 21.804688 C 10.21875 19.296875 10.21875 15.234375 12.726562 12.726562 C 15.234375 10.21875 19.296875 10.21875 21.804688 12.726562 " fill-opacity="1" fill-rule="nonzero"/></svg>