<svg width="24" height="24" viewBox="0 0 24 24" fill="none" xmlns="http://www.w3.org/2000/svg">
<path d="M7 7.5L9.942 9.24C11.657 10.254 12.342 10.254 14.058 9.24L17 7.5" stroke="#C6C6C6" stroke-width="2" stroke-linecap="round" stroke-linejoin="round"/>
<path d="M10.5001 19.5C10.033 19.4938 9.56601 19.4848 9.09907 19.473C5.95007 19.394 4.37607 19.355 3.24507 18.218C2.11407 17.082 2.08107 15.548 2.01507 12.481C1.994 11.4967 1.994 10.5122 2.01507 9.52796C2.08107 6.46096 2.11407 4.92796 3.24507 3.79096C4.37607 2.65496 5.95007 2.61596 9.09907 2.53696C11.0328 2.48817 12.9674 2.48817 14.9011 2.53696C18.0501 2.61596 19.6241 2.65496 20.7551 3.79096C21.8861 4.92696 21.9191 6.46096 21.9851 9.52796C21.9941 9.98296 21.9991 10.196 22.0001 10.5" stroke="#C6C6C6" stroke-width="2" stroke-linecap="round" stroke-linejoin="round"/>
<path d="M19 17C19 17.3978 18.842 17.7794 18.5607 18.0607C18.2794 18.342 17.8978 18.5 17.5 18.5C17.1022 18.5 16.7206 18.342 16.4393 18.0607C16.158 17.7794 16 17.3978 16 17C16 16.6022 16.158 16.2206 16.4393 15.9393C16.7206 15.658 17.1022 15.5 17.5 15.5C17.8978 15.5 18.2794 15.658 18.5607 15.9393C18.842 16.2206 19 16.6022 19 17ZM19 17V17.5C19 17.8978 19.158 18.2794 19.4393 18.5607C19.7206 18.842 20.1022 19 20.5 19C20.8978 19 21.2794 18.842 21.5607 18.5607C21.842 18.2794 22 17.8978 22 17.5V17C22 16.11 21.7361 15.24 21.2416 14.4999C20.7471 13.7599 20.0443 13.1831 19.2221 12.8425C18.3998 12.5019 17.495 12.4128 16.6221 12.5865C15.7492 12.7601 14.9474 13.1887 14.318 13.818C13.6887 14.4474 13.2601 15.2492 13.0865 16.1221C12.9128 16.995 13.0019 17.8998 13.3425 18.7221C13.6831 19.5443 14.2599 20.2471 14.9999 20.7416C15.74 21.2361 16.61 21.5 17.5 21.5" stroke="#C6C6C6" stroke-width="2" stroke-linecap="round" stroke-linejoin="round"/>
</svg>
