<svg width="20" height="20" viewBox="0 0 20 20" fill="none" xmlns="http://www.w3.org/2000/svg">
<path d="M18.3332 7.08338V11.25M11.8473 2.91672C11.27 2.64267 10.6389 2.50049 9.99984 2.50049C9.36076 2.50049 8.72968 2.64267 8.15234 2.91672L2.5765 5.53088C1.36317 6.09922 1.36317 8.06755 2.5765 8.63588L8.1515 11.25C8.72896 11.5242 9.36018 11.6665 9.99942 11.6665C10.6387 11.6665 11.2699 11.5242 11.8473 11.25L17.4232 8.63588C18.6365 8.06755 18.6365 6.09922 17.4232 5.53088L11.8473 2.91672Z" stroke="#454545" stroke-width="1.5" stroke-linecap="round" stroke-linejoin="round"/>
<path d="M4.1665 9.58337V13.8542C4.1665 16.2859 8.07817 17.5 9.99984 17.5C11.9215 17.5 15.8332 16.2859 15.8332 13.8542V9.58337" stroke="#454545" stroke-width="1.5" stroke-linecap="round" stroke-linejoin="round"/>
</svg>
