<svg width="20" height="20" viewBox="0 0 20 20" fill="none" xmlns="http://www.w3.org/2000/svg">
<path d="M2.10832 12.3084C1.93082 13.4701 2.72332 14.2759 3.69332 14.6776C7.41248 16.2192 12.5875 16.2192 16.3067 14.6776C17.2767 14.2759 18.0692 13.4692 17.8917 12.3084C17.7833 11.5942 17.2442 11.0001 16.845 10.4192C16.3225 9.64925 16.2708 8.81008 16.27 7.91675C16.2708 4.46508 13.4642 1.66675 9.99998 1.66675C6.53582 1.66675 3.72915 4.46508 3.72915 7.91675C3.72915 8.81008 3.67748 9.65008 3.15415 10.4192C2.75582 11.0001 2.21748 11.5942 2.10832 12.3084Z" stroke="#454545" stroke-width="1.5" stroke-linecap="round" stroke-linejoin="round"/>
<path d="M6.66663 15.8335C7.04829 17.271 8.39663 18.3335 9.99996 18.3335C11.6041 18.3335 12.9508 17.271 13.3333 15.8335" stroke="#454545" stroke-width="1.5" stroke-linecap="round" stroke-linejoin="round"/>
</svg>
