<svg width="24" height="24" viewBox="0 0 24 24" fill="none" xmlns="http://www.w3.org/2000/svg">
<path d="M20 12C20 13.0506 19.7931 14.0909 19.391 15.0615C18.989 16.0321 18.3997 16.914 17.6569 17.6569C16.914 18.3997 16.0321 18.989 15.0615 19.391C14.0909 19.7931 13.0506 20 12 20C10.9494 20 9.90914 19.7931 8.93853 19.391C7.96793 18.989 7.08601 18.3997 6.34315 17.6569C5.60028 16.914 5.011 16.0321 4.60896 15.0615C4.20693 14.0909 4 13.0506 4 12C4 9.87827 4.84285 7.84344 6.34315 6.34315C7.84344 4.84285 9.87827 4 12 4C14.1217 4 16.1566 4.84285 17.6569 6.34315C19.1571 7.84344 20 9.87827 20 12Z" stroke="#844F9E" stroke-width="1.5" stroke-linecap="round" stroke-linejoin="round"/>
<path d="M9.03735 12.5628L10.3751 14.0925C10.4632 14.1933 10.5728 14.2728 10.6959 14.3253C10.8189 14.3778 10.9523 14.4018 11.0859 14.3955C11.2195 14.3893 11.35 14.353 11.4677 14.2893C11.5853 14.2256 11.6871 14.1362 11.7654 14.0277L14.9627 9.6001" stroke="#844F9E" stroke-width="1.5" stroke-linecap="round" stroke-linejoin="round"/>
</svg>
