<svg width="26" height="26" viewBox="0 0 26 26" fill="none" xmlns="http://www.w3.org/2000/svg">
<rect width="26" height="26" rx="4" fill="#F7E9FF"/>
<path d="M22 13C22 14.1819 21.7672 15.3522 21.3149 16.4442C20.8626 17.5361 20.1997 18.5282 19.364 19.364C18.5282 20.1997 17.5361 20.8626 16.4442 21.3149C15.3522 21.7672 14.1819 22 13 22C11.8181 22 10.6478 21.7672 9.55585 21.3149C8.46392 20.8626 7.47177 20.1997 6.63604 19.364C5.80031 18.5282 5.13738 17.5361 4.68508 16.4442C4.23279 15.3522 4 14.1819 4 13C4 10.6131 4.94821 8.32387 6.63604 6.63604C8.32387 4.94821 10.6131 4 13 4C15.3869 4 17.6761 4.94821 19.364 6.63604C21.0518 8.32387 22 10.6131 22 13Z" stroke="#9636C7" stroke-width="1.5" stroke-linecap="round" stroke-linejoin="round"/>
<path d="M16.333 8.722H13M13 8.722H11.333C10.045 8.722 9 9.68 9 10.862C9 12.041 10.045 13 11.333 13H13M13 8.722V7.5M13 8.722V13M13 13H14.667C15.955 13 17 13.958 17 15.139C17 16.32 15.955 17.278 14.667 17.278H13M13 13V17.278M13 17.278H9M13 17.278V18.5" stroke="#9636C7" stroke-width="1.5" stroke-linecap="round" stroke-linejoin="round"/>
</svg>
