<svg width="24" height="24" viewBox="0 0 24 24" fill="none" xmlns="http://www.w3.org/2000/svg">
<rect x="23.5" y="23.5" width="23" height="23" rx="11.5" transform="rotate(-180 23.5 23.5)" stroke="#6580A9"/>
<g clip-path="url(#clip0_29_352)">
<path d="M15 12C15.0008 12.0656 14.9879 12.1306 14.962 12.1909C14.9362 12.2511 14.898 12.3054 14.85 12.35L10.35 16.85C10.15 17.05 9.83999 17.05 9.63999 16.85C9.43999 16.65 9.43999 16.34 9.63999 16.14L13.79 11.99L9.64999 7.85C9.44999 7.65 9.44999 7.34 9.64999 7.14C9.84999 6.94 10.16 6.94 10.36 7.14L14.86 11.64C14.96 11.74 15.01 11.87 15.01 11.99L15 12Z" fill="#6580A9"/>
</g>
<defs>
<clipPath id="clip0_29_352">
<rect width="16" height="7" fill="white" transform="matrix(0 -1 1 0 8.5 20)"/>
</clipPath>
</defs>
</svg>
