<svg width="20" height="20" viewBox="0 0 20 20" fill="none" xmlns="http://www.w3.org/2000/svg">
<path d="M17.765 5.95094L17.3534 5.23761C17.0425 4.69761 16.8867 4.42761 16.6217 4.32011C16.3575 4.21177 16.0584 4.29761 15.4592 4.46677L14.4425 4.75344C14.06 4.84177 13.6592 4.79177 13.3109 4.61177L13.03 4.45011C12.7308 4.25837 12.5007 3.97602 12.3734 3.64427L12.095 2.81261C11.9117 2.26261 11.82 1.98761 11.6025 1.83094C11.385 1.67261 11.095 1.67261 10.5167 1.67261H9.58752C9.00919 1.67261 8.72002 1.67261 8.50169 1.83094C8.28419 1.98761 8.19336 2.26261 8.01002 2.81261L7.73169 3.64427C7.60409 3.97614 7.3737 4.25851 7.07419 4.45011L6.79336 4.61261C6.44502 4.79177 6.04336 4.84177 5.66169 4.75427L4.64502 4.46677C4.04586 4.29761 3.74669 4.21261 3.48252 4.32011C3.21752 4.42761 3.06169 4.69761 2.75086 5.23677L2.34002 5.95094C2.04836 6.45761 1.90252 6.71011 1.93086 6.97927C1.95919 7.24927 2.15419 7.46594 2.54419 7.90011L3.40336 8.86094C3.61336 9.12677 3.76252 9.59011 3.76252 10.0068C3.76252 10.4234 3.61336 10.8868 3.40419 11.1526L2.54419 12.1126C2.15419 12.5468 1.95919 12.7643 1.93086 13.0334C1.90252 13.3026 2.04752 13.5559 2.33919 14.0618L2.75086 14.7759C3.06169 15.3151 3.21752 15.5851 3.48252 15.6926C3.74752 15.8001 4.04586 15.7159 4.64502 15.5459L5.66169 15.2593C6.0441 15.1717 6.44513 15.2219 6.79419 15.4009L7.07419 15.5626C7.37419 15.7543 7.60419 16.0376 7.73086 16.3693L8.00919 17.2001C8.19252 17.7501 8.28419 18.0251 8.50169 18.1834C8.72002 18.3401 9.00919 18.3401 9.58752 18.3401H10.5167C11.095 18.3401 11.385 18.3401 11.6025 18.1826C11.82 18.0251 11.9117 17.7501 12.0942 17.2001L12.3734 16.3693C12.5 16.0368 12.73 15.7543 13.03 15.5626L13.31 15.4009C13.66 15.2218 14.06 15.1709 14.4434 15.2593L15.46 15.5459C16.0584 15.7159 16.3575 15.8009 16.6217 15.6934C16.8867 15.5851 17.0425 15.3151 17.3534 14.7759L17.7642 14.0618C18.0559 13.5559 18.2017 13.3034 18.1734 13.0334C18.145 12.7634 17.95 12.5468 17.56 12.1126L16.7009 11.1526C16.4909 10.8859 16.3417 10.4234 16.3417 10.0068C16.3417 9.59011 16.4909 9.12677 16.7 8.86094L17.56 7.90011C17.95 7.46677 18.145 7.24927 18.1734 6.97927C18.2017 6.70927 18.0567 6.45761 17.765 5.95094Z" stroke="#454545" stroke-width="1.5" stroke-linecap="round" stroke-linejoin="round"/>
<path d="M12.9334 10.0002C12.9334 10.7737 12.6261 11.5156 12.0791 12.0626C11.5321 12.6095 10.7903 12.9168 10.0167 12.9168C9.24316 12.9168 8.50129 12.6095 7.95431 12.0626C7.40733 11.5156 7.10004 10.7737 7.10004 10.0002C7.10004 9.22661 7.40733 8.48475 7.95431 7.93777C8.50129 7.39079 9.24316 7.0835 10.0167 7.0835C10.7903 7.0835 11.5321 7.39079 12.0791 7.93777C12.6261 8.48475 12.9334 9.22661 12.9334 10.0002Z" stroke="#454545" stroke-width="1.5" stroke-linecap="round" stroke-linejoin="round"/>
</svg>
