<svg width="24" height="25" viewBox="0 0 24 25" fill="none" xmlns="http://www.w3.org/2000/svg">
<path d="M16.59 9.33325H15V4.33325C15 3.78325 14.55 3.33325 14 3.33325H10C9.45 3.33325 9 3.78325 9 4.33325V9.33325H7.41C6.52 9.33325 6.07 10.4133 6.7 11.0433L11.29 15.6333C11.68 16.0233 12.31 16.0233 12.7 15.6333L17.29 11.0433C17.92 10.4133 17.48 9.33325 16.59 9.33325ZM5 19.3333C5 19.8833 5.45 20.3333 6 20.3333H18C18.55 20.3333 19 19.8833 19 19.3333C19 18.7833 18.55 18.3333 18 18.3333H6C5.45 18.3333 5 18.7833 5 19.3333Z" fill="white"/>
</svg>
