<svg width="24" height="24" viewBox="0 0 24 24" fill="none" xmlns="http://www.w3.org/2000/svg">
<path d="M21.3553 4.93311L12.3553 1.93311C12.1248 1.85531 11.8751 1.85531 11.6447 1.93311L2.64466 4.93311C2.42991 5.00423 2.2416 5.13845 2.10429 5.31823C1.96698 5.49802 1.88707 5.71502 1.87498 5.94092C1.87395 5.96059 1.87395 5.98031 1.87498 5.99998V13.5C1.87498 13.7984 1.9935 14.0845 2.20448 14.2955C2.41546 14.5065 2.70161 14.625 2.99998 14.625C3.29834 14.625 3.58449 14.5065 3.79547 14.2955C4.00645 14.0845 4.12498 13.7984 4.12498 13.5V7.56092L6.34779 8.30155C5.65794 9.62201 5.45293 11.1426 5.76846 12.5986C6.08399 14.0546 6.90006 15.3539 8.07466 16.2703C6.53756 17.0283 5.23669 18.1917 4.31248 19.635C4.22925 19.7587 4.17144 19.8977 4.14241 20.0439C4.11337 20.1902 4.1137 20.3407 4.14336 20.4868C4.17303 20.6329 4.23144 20.7717 4.3152 20.895C4.39896 21.0184 4.5064 21.1238 4.63128 21.2053C4.75615 21.2867 4.89597 21.3425 5.04261 21.3695C5.18925 21.3964 5.33978 21.3939 5.48545 21.3622C5.63112 21.3304 5.76903 21.2701 5.89116 21.1845C6.01329 21.099 6.1172 20.9901 6.19685 20.864C7.53466 18.8053 9.65623 17.625 12 17.625C14.3437 17.625 16.4653 18.8053 17.8078 20.864C17.8874 20.9901 17.9914 21.099 18.1135 21.1845C18.2356 21.2701 18.3735 21.3304 18.5192 21.3622C18.6649 21.3939 18.8154 21.3964 18.962 21.3695C19.1087 21.3425 19.2485 21.2867 19.3734 21.2053C19.4982 21.1238 19.6057 21.0184 19.6894 20.895C19.7732 20.7717 19.8316 20.6329 19.8613 20.4868C19.8909 20.3407 19.8913 20.1902 19.8622 20.0439C19.8332 19.8977 19.7754 19.7587 19.6922 19.635C18.7671 18.19 17.4645 17.0255 15.9253 16.2675C17.0999 15.3511 17.916 14.0518 18.2315 12.5958C18.547 11.1398 18.342 9.6192 17.6522 8.29873L21.3553 7.06405C21.579 6.9892 21.7735 6.84592 21.9114 6.65447C22.0492 6.46301 22.1234 6.23308 22.1234 5.99717C22.1234 5.76127 22.0492 5.53133 21.9114 5.33988C21.7735 5.14842 21.579 5.00514 21.3553 4.9303V4.93311ZM12 4.18311L17.4422 5.99998L12 7.81405L6.56248 5.99998L12 4.18311ZM16.125 11.25C16.1251 11.8907 15.976 12.5226 15.6894 13.0957C15.4028 13.6688 14.9867 14.1672 14.474 14.5515C13.9613 14.9358 13.3662 15.1953 12.7357 15.3096C12.1053 15.4239 11.4569 15.3897 10.8419 15.2099C10.227 15.03 9.66239 14.7093 9.1929 14.2733C8.72342 13.8373 8.36196 13.2979 8.13717 12.698C7.91239 12.098 7.83046 11.4538 7.89788 10.8167C7.9653 10.1795 8.18022 9.56683 8.5256 9.02717L11.6447 10.0669C11.8752 10.1444 12.1248 10.1444 12.3553 10.0669L15.4744 9.02717C15.8998 9.69044 16.1256 10.462 16.125 11.25Z" fill="#6580A9"/>
</svg>
