<svg width="20" height="20" viewBox="0 0 20 20" fill="none" xmlns="http://www.w3.org/2000/svg">
<path d="M17.5 16.4583C17.5 14.7166 16.1083 12.235 14.1667 11.6858M12.5 16.4583C12.5 14.2491 10.2617 11.4583 7.5 11.4583C4.73833 11.4583 2.5 14.2491 2.5 16.4583M12.5 8.54163C13.163 8.54163 13.7989 8.27823 14.2678 7.80939C14.7366 7.34055 15 6.70467 15 6.04163C15 5.37858 14.7366 4.7427 14.2678 4.27386C13.7989 3.80502 13.163 3.54163 12.5 3.54163M10 6.04163C10 6.70467 9.73661 7.34055 9.26777 7.80939C8.79893 8.27823 8.16304 8.54163 7.5 8.54163C6.83696 8.54163 6.20107 8.27823 5.73223 7.80939C5.26339 7.34055 5 6.70467 5 6.04163C5 5.37858 5.26339 4.7427 5.73223 4.27386C6.20107 3.80502 6.83696 3.54163 7.5 3.54163C8.16304 3.54163 8.79893 3.80502 9.26777 4.27386C9.73661 4.7427 10 5.37858 10 6.04163Z" stroke="#454545" stroke-width="1.5" stroke-linecap="round" stroke-linejoin="round"/>
</svg>
