<svg width="26" height="26" viewBox="0 0 26 26" fill="none" xmlns="http://www.w3.org/2000/svg">
<rect width="26" height="26" rx="4" fill="#FCF2E4"/>
<path d="M22 13C22 14.1819 21.7672 15.3522 21.3149 16.4442C20.8626 17.5361 20.1997 18.5282 19.364 19.364C18.5282 20.1997 17.5361 20.8626 16.4442 21.3149C15.3522 21.7672 14.1819 22 13 22C11.8181 22 10.6478 21.7672 9.55585 21.3149C8.46392 20.8626 7.47177 20.1997 6.63604 19.364C5.80031 18.5282 5.13738 17.5361 4.68508 16.4442C4.23279 15.3522 4 14.1819 4 13C4 10.6131 4.94821 8.32387 6.63604 6.63604C8.32387 4.94821 10.6131 4 13 4C15.3869 4 17.6761 4.94821 19.364 6.63604C21.0518 8.32387 22 10.6131 22 13Z" stroke="#F17B27" stroke-width="1.5" stroke-linecap="round" stroke-linejoin="round"/>
<path d="M12.6787 6.89282V12.6785L16.5359 14.6071" stroke="#F17B27" stroke-width="1.5" stroke-linecap="round" stroke-linejoin="round"/>
</svg>
