<svg width="24" height="24" viewBox="0 0 24 24" fill="none" xmlns="http://www.w3.org/2000/svg">
<path d="M19.439 15.439C20.2087 14.6711 20.9128 13.8402 21.544 12.955C21.848 12.529 22 12.315 22 12C22 11.684 21.848 11.471 21.544 11.045C20.178 9.129 16.689 5 12 5C11.092 5 10.23 5.155 9.418 5.418M6.748 6.748C4.731 8.108 3.242 9.943 2.456 11.045C2.152 11.471 2 11.685 2 12C2 12.316 2.152 12.529 2.456 12.955C3.822 14.871 7.311 19 12 19C13.99 19 15.765 18.256 17.253 17.253" stroke="#C6C6C6" stroke-width="2" stroke-linecap="round" stroke-linejoin="round"/>
<path d="M9.858 10C9.58129 10.2709 9.36106 10.594 9.21003 10.9506C9.05901 11.3072 8.98019 11.6902 8.97814 12.0774C8.9761 12.4647 9.05086 12.8485 9.19811 13.2066C9.34535 13.5648 9.56216 13.8902 9.83599 14.164C10.1098 14.4378 10.4352 14.6546 10.7934 14.8019C11.1515 14.9491 11.5353 15.0239 11.9226 15.0219C12.3098 15.0198 12.6928 14.941 13.0494 14.79C13.406 14.6389 13.7291 14.4187 14 14.142M3 3L21 21" stroke="#C6C6C6" stroke-width="2" stroke-linecap="round" stroke-linejoin="round"/>
</svg>
