<svg width="41" height="40" viewBox="0 0 41 40" fill="none" xmlns="http://www.w3.org/2000/svg">
<path d="M35.83 31.0414L22.5152 6.31484C21.5714 4.56172 19.0574 4.56172 18.1128 6.31484L4.79877 31.0414C4.59386 31.422 4.49113 31.8492 4.5006 32.2814C4.51007 32.7135 4.63143 33.1358 4.85282 33.507C5.07421 33.8783 5.38808 34.1858 5.76378 34.3995C6.13948 34.6133 6.56418 34.7259 6.99643 34.7266H33.6285C34.061 34.7266 34.4862 34.6144 34.8625 34.401C35.2387 34.1875 35.5531 33.8801 35.775 33.5087C35.9968 33.1374 36.1185 32.7148 36.1282 32.2823C36.1378 31.8499 36.0351 31.4223 35.83 31.0414ZM20.3144 30.8984C20.0054 30.8984 19.7033 30.8068 19.4463 30.6351C19.1894 30.4634 18.9891 30.2194 18.8708 29.9339C18.7526 29.6484 18.7216 29.3342 18.7819 29.0311C18.8422 28.728 18.991 28.4496 19.2095 28.2311C19.4281 28.0126 19.7065 27.8638 20.0096 27.8035C20.3127 27.7432 20.6268 27.7741 20.9123 27.8924C21.1978 28.0106 21.4419 28.2109 21.6136 28.4679C21.7853 28.7248 21.8769 29.0269 21.8769 29.3359C21.8769 29.7503 21.7123 30.1478 21.4193 30.4408C21.1262 30.7338 20.7288 30.8984 20.3144 30.8984ZM22.0113 15.1836L21.5628 24.7148C21.5628 25.0464 21.4311 25.3643 21.1967 25.5987C20.9623 25.8331 20.6444 25.9648 20.3128 25.9648C19.9813 25.9648 19.6634 25.8331 19.429 25.5987C19.1945 25.3643 19.0628 25.0464 19.0628 24.7148L18.6144 15.1875C18.6043 14.9598 18.6402 14.7325 18.7198 14.519C18.7995 14.3055 18.9213 14.1102 19.0781 13.9447C19.2348 13.7793 19.4233 13.6472 19.6322 13.5561C19.8411 13.4651 20.0662 13.417 20.2941 13.4148H20.3105C20.5399 13.4147 20.767 13.4611 20.978 13.5511C21.189 13.6412 21.3796 13.7731 21.5383 13.9388C21.6969 14.1045 21.8204 14.3007 21.9011 14.5154C21.9819 14.7302 22.0183 14.9591 22.0081 15.1883L22.0113 15.1836Z" fill="#B31919"/>
</svg>
